<svg width="117" height="29" viewBox="0 0 117 29" fill="none" xmlns="http://www.w3.org/2000/svg">
<path fill-rule="evenodd" clip-rule="evenodd" d="M35.7199 7.96404V16.6905C35.7199 17.563 35.9345 18.2346 36.3638 18.7057C36.7931 19.1765 37.4233 19.4123 38.2544 19.4123C39.0856 19.4123 39.7229 19.1765 40.1661 18.7057C40.6092 18.2346 40.8309 17.563 40.8309 16.6905V7.96404H44.3838V16.6695C44.3838 17.9716 44.1065 19.0728 43.5526 19.9731C42.9985 20.8734 42.254 21.552 41.319 22.0092C40.3841 22.4661 39.3418 22.6949 38.1924 22.6949C37.0425 22.6949 36.0141 22.4698 35.1068 22.0195C34.1995 21.5694 33.4829 20.8906 32.9564 19.9834C32.4301 19.0763 32.167 17.9716 32.167 16.6695V7.96404H35.7199ZM53.432 10.8314C54.7894 10.8314 55.8732 11.2711 56.6833 12.1505C57.4938 13.0302 57.8988 14.2387 57.8988 15.7763V22.5493H54.3668V16.254C54.3668 15.4781 54.166 14.8759 53.7642 14.4464C53.3627 14.0171 52.8224 13.8022 52.1437 13.8022C51.4651 13.8022 50.9251 14.0171 50.5232 14.4464C50.1213 14.8759 49.9207 15.4781 49.9207 16.254V22.5493H46.3677V10.9559H49.9207V12.4935C50.2806 11.9809 50.7656 11.5758 51.3749 11.2781C51.9845 10.9804 52.6701 10.8314 53.432 10.8314ZM61.6491 9.75112C61.0259 9.75112 60.5166 9.56734 60.1219 9.20046C59.7274 8.83334 59.53 8.37964 59.53 7.83952C59.53 7.28543 59.7274 6.8249 60.1219 6.45768C60.5166 6.0908 61.0259 5.9071 61.6491 5.9071C62.2585 5.9071 62.7606 6.0908 63.1557 6.45768C63.5504 6.8249 63.7477 7.28543 63.7477 7.83952C63.7477 8.37964 63.5504 8.83334 63.1557 9.20046C62.7606 9.56734 62.2585 9.75112 61.6491 9.75112ZM63.4152 22.5493H59.8622V10.956H63.4152V22.5493Z" fill="#1B0947"/>
<path fill-rule="evenodd" clip-rule="evenodd" d="M82 7.96399V22.5493H78.4471V13.8021L75.1854 22.5493H72.3182L69.0353 13.7816V22.5493H65.4824V7.96399H69.6792L73.7723 18.0616L77.8239 7.96399H82ZM83.3402 16.7319C83.3402 15.5406 83.5652 14.4948 84.0156 13.5946C84.4655 12.6942 85.0784 12.0017 85.8541 11.5169C86.6298 11.0322 87.4955 10.7896 88.4512 10.7896C89.2685 10.7896 89.9852 10.9558 90.6017 11.2883C91.2182 11.6209 91.6923 12.0572 92.0249 12.5974V10.9558H95.5778V22.5493H92.0249V20.908C91.6785 21.4482 91.1973 21.8845 90.5809 22.2167C89.9645 22.5493 89.2476 22.7154 88.4304 22.7154C87.4886 22.7154 86.6298 22.4697 85.8541 21.9779C85.0784 21.4861 84.4655 20.7868 84.0156 19.8795C83.5652 18.9722 83.3402 17.923 83.3402 16.7319ZM92.0249 16.7527C92.0249 15.8661 91.779 15.1666 91.2871 14.6541C90.7955 14.1417 90.1964 13.8856 89.4901 13.8856C88.7837 13.8856 88.1845 14.1381 87.6928 14.6439C87.2012 15.1492 86.9552 15.8452 86.9552 16.7319C86.9552 17.6185 87.2012 18.3211 87.6928 18.8408C88.1845 19.3603 88.7837 19.6198 89.4901 19.6198C90.1964 19.6198 90.7955 19.3636 91.2871 18.851C91.779 18.3385 92.0249 17.639 92.0249 16.7527ZM104.107 19.5368V22.5493H102.299C101.011 22.5493 100.007 22.234 99.2863 21.6039C98.5662 20.9736 98.2059 19.9453 98.2059 18.5185V13.9061H96.7933V10.9558H98.2059V8.13015H101.759V10.9558H104.086V13.9061H101.759V18.5603C101.759 18.9064 101.842 19.1557 102.008 19.3083C102.174 19.4604 102.452 19.5368 102.839 19.5368H104.107ZM116.5 16.5657C116.5 16.898 116.479 17.2443 116.438 17.6044H108.397C108.452 18.3247 108.684 18.8752 109.093 19.2563C109.502 19.6371 110.004 19.8275 110.599 19.8275C111.486 19.8275 112.102 19.4536 112.448 18.7056H116.23C116.036 19.4674 115.686 20.1531 115.181 20.7626C114.675 21.3719 114.041 21.8499 113.28 22.1961C112.518 22.5425 111.666 22.7154 110.724 22.7154C109.588 22.7154 108.577 22.4732 107.691 21.9881C106.804 21.5035 106.112 20.8109 105.613 19.9107C105.114 19.0104 104.865 17.9576 104.865 16.7527C104.865 15.5475 105.111 14.4948 105.603 13.5946C106.094 12.6942 106.784 12.0017 107.67 11.5169C108.556 11.0322 109.574 10.7896 110.724 10.7896C111.846 10.7896 112.843 11.0252 113.716 11.4963C114.588 11.967 115.271 12.6389 115.762 13.5114C116.254 14.3839 116.5 15.402 116.5 16.5657ZM112.864 15.6306C112.864 15.0212 112.656 14.5365 112.241 14.1763C111.825 13.8162 111.306 13.6362 110.683 13.6362C110.087 13.6362 109.585 13.8093 109.176 14.1555C108.767 14.5018 108.515 14.9935 108.418 15.6306H112.864Z" fill="#1B0947"/>
<path fill-rule="evenodd" clip-rule="evenodd" d="M27.8597 4.27465L14.1797 0V28.6226C21.7035 28.6226 27.8597 22.467 27.8597 14.9429V4.27465Z" fill="#8E5EFF"/>
<path fill-rule="evenodd" clip-rule="evenodd" d="M27.8598 13.6012L0.5 5.0509V14.943C0.5 22.4661 6.65608 28.6226 14.1798 28.6226C21.7037 28.6226 27.8598 22.4668 27.8598 14.943V13.6012Z" fill="#5B25D9"/>
<path fill-rule="evenodd" clip-rule="evenodd" d="M27.8594 13.6008L14.1797 9.32581V28.6225C17.4545 28.6225 20.4703 27.4558 22.8322 25.5178L22.868 25.4885L22.8968 25.4641L23.0853 25.3048L23.1162 25.2785L23.1192 25.2762L23.1606 25.2394L23.3218 25.0964L23.3847 25.0396L23.5681 24.8689L23.6319 24.8081L23.808 24.6362L23.8814 24.5628L24.0572 24.3827L24.0703 24.3691L24.0974 24.3397L24.284 24.1395L24.2946 24.1284L24.3103 24.111L24.4786 23.9213L24.5351 23.8567L24.7029 23.658L24.7456 23.6062L24.9103 23.4026L24.932 23.3751L24.9494 23.3527L25.1322 23.1141L25.137 23.1078L25.3073 22.8753L25.3396 22.8294C25.3952 22.7512 25.4501 22.6727 25.5038 22.5931L25.5241 22.5633C25.5789 22.4822 25.633 22.4008 25.6859 22.3184L25.7163 22.2703L25.8554 22.0483L25.8674 22.0288L25.8716 22.0225L25.8898 21.9917L26.0196 21.773L26.0402 21.7381L26.0575 21.7077L26.1897 21.4717L26.21 21.4345C26.2554 21.3503 26.3006 21.2663 26.344 21.1814L26.3708 21.1291C26.5138 20.8489 26.648 20.5636 26.772 20.2726L26.7844 20.2434L26.9019 19.9567L26.9118 19.932C26.9504 19.8342 26.988 19.7362 27.0244 19.6374L27.0293 19.624C27.0664 19.5225 27.1027 19.4208 27.1374 19.3183L27.139 19.3144C27.1705 19.2219 27.2006 19.1288 27.2302 19.0352L27.2495 18.974L27.3336 18.6916L27.3423 18.6619C27.3707 18.5615 27.3981 18.4613 27.4245 18.3599L27.4301 18.3377C27.456 18.237 27.4812 18.136 27.5047 18.0342L27.5074 18.0225L27.5079 18.0206C27.5303 17.9246 27.5513 17.8273 27.5717 17.7303L27.5804 17.6908L27.5868 17.6593C27.6039 17.5751 27.6193 17.4906 27.6351 17.4056L27.6505 17.3231C27.6682 17.2228 27.6851 17.1224 27.7005 17.0214L27.7017 17.0147C27.7175 16.9127 27.7317 16.81 27.7452 16.707L27.7491 16.6789L27.752 16.6522L27.7855 16.3618L27.7885 16.3362L27.7899 16.3202C27.8001 16.2202 27.8087 16.1197 27.8167 16.019L27.8203 15.9715C27.8282 15.869 27.8345 15.7665 27.8403 15.6631L27.8423 15.6256C27.8474 15.519 27.8515 15.4119 27.8546 15.3044L27.8553 15.2717C27.8582 15.1623 27.8594 15.0526 27.8594 14.9427V13.6008Z" fill="#6D3CDE"/>
<path fill-rule="evenodd" clip-rule="evenodd" d="M5.94922 12.5454V14.9775C5.94922 17.2435 6.87461 19.3019 8.36482 20.7925C9.85522 22.2826 11.9137 23.208 14.1797 23.208C16.4459 23.208 18.5043 22.2829 19.9946 20.7926C21.4853 19.3023 22.41 17.2437 22.41 14.9775V6.90793C22.41 5.41271 21.1981 4.20056 19.7029 4.20056C18.2079 4.20056 16.9955 5.41271 16.9955 6.90793L16.996 14.9775C16.996 15.7492 16.6777 16.4529 16.1664 16.9644C15.6549 17.4758 14.9512 17.7935 14.1797 17.7935C13.4081 17.7935 12.7046 17.4758 12.193 16.9643C11.6816 16.4526 11.3638 15.749 11.3638 14.9775V12.5455C11.3638 11.0504 10.1518 9.83851 8.6567 9.83851C7.16148 9.83851 5.94922 11.0504 5.94922 12.5454Z" fill="#FEFEFE"/>
<path fill-rule="evenodd" clip-rule="evenodd" d="M8.61553 0.544067C10.1109 0.544067 11.3229 1.75593 11.3229 3.25115C11.3229 4.74651 10.1109 5.95852 8.61553 5.95852C7.1203 5.95852 5.9082 4.74651 5.9082 3.25115C5.9082 1.75593 7.1203 0.544067 8.61553 0.544067Z" fill="#FB872B"/>
</svg>
