<svg width="28" height="29" viewBox="0 0 28 29" fill="none" xmlns="http://www.w3.org/2000/svg">
<path fill-rule="evenodd" clip-rule="evenodd" d="M27.3597 4.27465L13.6797 0V28.6226C21.2035 28.6226 27.3597 22.467 27.3597 14.9429V4.27465Z" fill="#8E5EFF"/>
<path fill-rule="evenodd" clip-rule="evenodd" d="M27.3598 13.6012L0 5.05087V14.9429C0 22.4661 6.15608 28.6226 13.6798 28.6226C21.2037 28.6226 27.3598 22.4668 27.3598 14.9429V13.6012Z" fill="#5B25D9"/>
<path fill-rule="evenodd" clip-rule="evenodd" d="M27.3594 13.6008L13.6797 9.32581V28.6225C16.9545 28.6225 19.9703 27.4558 22.3322 25.5178L22.368 25.4885L22.3968 25.4641L22.5853 25.3048L22.6162 25.2785L22.6192 25.2762L22.6606 25.2394L22.8218 25.0964L22.8847 25.0396L23.0681 24.8689L23.1319 24.8081L23.308 24.6362L23.3814 24.5628L23.5572 24.3827L23.5703 24.3691L23.5974 24.3397L23.784 24.1395L23.7946 24.1284L23.8103 24.111L23.9786 23.9213L24.0351 23.8567L24.2029 23.658L24.2456 23.6062L24.4103 23.4026L24.432 23.3751L24.4494 23.3527L24.6322 23.1141L24.637 23.1078L24.8073 22.8753L24.8396 22.8294C24.8952 22.7512 24.9501 22.6727 25.0038 22.5931L25.0241 22.5633C25.0789 22.4822 25.133 22.4008 25.1859 22.3184L25.2163 22.2703L25.3554 22.0483L25.3674 22.0288L25.3716 22.0225L25.3898 21.9917L25.5196 21.773L25.5402 21.7381L25.5575 21.7077L25.6897 21.4717L25.71 21.4345C25.7554 21.3503 25.8006 21.2663 25.844 21.1814L25.8708 21.1291C26.0138 20.8489 26.148 20.5636 26.272 20.2726L26.2844 20.2434L26.4019 19.9567L26.4118 19.932C26.4504 19.8342 26.488 19.7362 26.5244 19.6374L26.5293 19.624C26.5664 19.5225 26.6027 19.4208 26.6374 19.3183L26.639 19.3144C26.6705 19.2219 26.7006 19.1288 26.7302 19.0352L26.7495 18.974L26.8336 18.6916L26.8423 18.6619C26.8707 18.5615 26.8981 18.4613 26.9245 18.3599L26.9301 18.3377C26.956 18.237 26.9812 18.136 27.0047 18.0342L27.0074 18.0225L27.0079 18.0206C27.0303 17.9246 27.0513 17.8273 27.0717 17.7303L27.0804 17.6908L27.0868 17.6593C27.1039 17.5751 27.1193 17.4906 27.1351 17.4056L27.1505 17.3231C27.1682 17.2228 27.1851 17.1224 27.2005 17.0214L27.2017 17.0147C27.2175 16.9127 27.2317 16.81 27.2452 16.707L27.2491 16.6789L27.252 16.6522L27.2855 16.3618L27.2885 16.3362L27.2899 16.3202C27.3001 16.2202 27.3087 16.1197 27.3167 16.019L27.3203 15.9715C27.3282 15.869 27.3345 15.7665 27.3403 15.6631L27.3423 15.6256C27.3474 15.519 27.3515 15.4119 27.3546 15.3044L27.3553 15.2717C27.3582 15.1623 27.3594 15.0526 27.3594 14.9427V13.6008Z" fill="#6D3CDE"/>
<path fill-rule="evenodd" clip-rule="evenodd" d="M5.44922 12.5454V14.9775C5.44922 17.2435 6.37461 19.3019 7.86482 20.7925C9.35522 22.2826 11.4137 23.208 13.6797 23.208C15.9459 23.208 18.0043 22.2829 19.4946 20.7926C20.9853 19.3023 21.91 17.2437 21.91 14.9775V6.90793C21.91 5.41271 20.6981 4.20056 19.2029 4.20056C17.7079 4.20056 16.4955 5.41271 16.4955 6.90793L16.496 14.9775C16.496 15.7492 16.1777 16.4529 15.6664 16.9644C15.1549 17.4758 14.4512 17.7935 13.6797 17.7935C12.9081 17.7935 12.2046 17.4758 11.693 16.9643C11.1816 16.4526 10.8638 15.749 10.8638 14.9775V12.5455C10.8638 11.0504 9.65182 9.83851 8.1567 9.83851C6.66148 9.83851 5.44922 11.0504 5.44922 12.5454Z" fill="#FEFEFE"/>
<path fill-rule="evenodd" clip-rule="evenodd" d="M8.11553 0.544034C9.61088 0.544034 10.8229 1.7559 10.8229 3.25112C10.8229 4.74648 9.61088 5.95849 8.11553 5.95849C6.6203 5.95849 5.4082 4.74648 5.4082 3.25112C5.4082 1.7559 6.6203 0.544034 8.11553 0.544034Z" fill="#FB872B"/>
</svg>
