<svg width="25" height="24" viewBox="0 0 25 24" fill="none" xmlns="http://www.w3.org/2000/svg">
<path d="M12.4488 14.54C8.99884 14.54 6.08789 15.1038 6.08789 17.2795C6.08789 19.4562 9.01765 20.0001 12.4488 20.0001C15.8988 20.0001 18.8098 19.4364 18.8098 17.2606C18.8098 15.084 15.88 14.54 12.4488 14.54Z" fill="#5B25D9"/>
<path opacity="0.4" d="M12.4485 12.467C14.7847 12.467 16.6578 10.5831 16.6578 8.23351C16.6578 5.88306 14.7847 4 12.4485 4C10.1124 4 8.23926 5.88306 8.23926 8.23351C8.23926 10.5831 10.1124 12.467 12.4485 12.467Z" fill="#5B25D9"/>
<path opacity="0.4" d="M21.5876 9.21923C22.192 6.84176 20.42 4.70654 18.1636 4.70654C17.9182 4.70654 17.6836 4.73356 17.4544 4.77949C17.424 4.78669 17.3899 4.802 17.372 4.82902C17.3514 4.86324 17.3666 4.90917 17.389 4.93889C18.0669 5.89528 18.4564 7.0597 18.4564 8.30967C18.4564 9.50741 18.0991 10.6241 17.4723 11.5508C17.4078 11.6462 17.4651 11.775 17.5789 11.7948C17.7365 11.8227 17.8976 11.8371 18.0624 11.8416C19.7054 11.8849 21.1802 10.8213 21.5876 9.21923Z" fill="#5B25D9"/>
<path d="M23.3094 14.817C23.0086 14.1722 22.2824 13.73 21.1783 13.513C20.6572 13.3851 19.247 13.205 17.9352 13.2293C17.9155 13.232 17.9048 13.2455 17.903 13.2545C17.9003 13.2671 17.9057 13.2887 17.9316 13.3022C18.5378 13.6039 20.8811 14.916 20.5865 17.6834C20.574 17.8032 20.6698 17.9068 20.7888 17.8888C21.3655 17.8059 22.8492 17.4853 23.3094 16.4866C23.5637 15.9589 23.5637 15.3456 23.3094 14.817Z" fill="#5B25D9"/>
<path opacity="0.4" d="M7.54508 4.77998C7.31675 4.73315 7.08126 4.70703 6.83592 4.70703C4.5795 4.70703 2.8075 6.84225 3.41279 9.21972C3.81931 10.8218 5.29403 11.8854 6.9371 11.8421C7.10185 11.8376 7.26392 11.8223 7.42061 11.7953C7.53433 11.7755 7.59164 11.6467 7.52717 11.5513C6.90039 10.6237 6.54312 9.5079 6.54312 8.31016C6.54312 7.05928 6.93352 5.89486 7.61134 4.93937C7.63283 4.90966 7.64894 4.86373 7.62745 4.82951C7.60954 4.80159 7.57642 4.78718 7.54508 4.77998Z" fill="#5B25D9"/>
<path d="M3.82156 13.5127C2.71752 13.7297 1.99225 14.1719 1.69139 14.8167C1.4362 15.3453 1.4362 15.9586 1.69139 16.4872C2.15163 17.4851 3.63531 17.8066 4.21195 17.8885C4.33104 17.9065 4.42595 17.8038 4.41342 17.6832C4.11883 14.9167 6.4621 13.6046 7.06918 13.3029C7.09425 13.2885 7.09962 13.2677 7.09694 13.2542C7.09515 13.2452 7.0853 13.2317 7.0656 13.2299C5.75294 13.2047 4.34358 13.3848 3.82156 13.5127Z" fill="#5B25D9"/>
</svg>
