<svg width="25" height="24" viewBox="0 0 25 24" fill="none" xmlns="http://www.w3.org/2000/svg">
<path opacity="0.4" d="M16.691 2H8.31C5.27 2 3.5 3.78 3.5 6.83V17.16C3.5 20.26 5.27 22 8.31 22H16.691C19.78 22 21.5 20.26 21.5 17.16V6.83C21.5 3.78 19.78 2 16.691 2Z" fill="#5B25D9"/>
<path fill-rule="evenodd" clip-rule="evenodd" d="M8.57996 6.6499V6.6599C8.14896 6.6599 7.79996 7.0099 7.79996 7.4399C7.79996 7.8699 8.14896 8.2199 8.57996 8.2199H11.569C12 8.2199 12.35 7.8699 12.35 7.4289C12.35 6.9999 12 6.6499 11.569 6.6499H8.57996ZM16.42 12.7399H8.57996C8.14896 12.7399 7.79996 12.3899 7.79996 11.9599C7.79996 11.5299 8.14896 11.1789 8.57996 11.1789H16.42C16.85 11.1789 17.2 11.5299 17.2 11.9599C17.2 12.3899 16.85 12.7399 16.42 12.7399ZM16.42 17.3099H8.57996C8.27996 17.3499 7.98996 17.1999 7.82996 16.9499C7.66996 16.6899 7.66996 16.3599 7.82996 16.1099C7.98996 15.8499 8.27996 15.7099 8.57996 15.7399H16.42C16.819 15.7799 17.12 16.1199 17.12 16.5299C17.12 16.9289 16.819 17.2699 16.42 17.3099Z" fill="#5B25D9"/>
</svg>
