<svg width="170" height="19" viewBox="0 0 170 19" fill="none" xmlns="http://www.w3.org/2000/svg">
<path d="M4.016 3.96V8.16H9.656V10.824H4.016V15.264H10.376V18H0.656V1.224H10.376V3.96H4.016ZM20.7974 4.512C22.3814 4.512 23.6614 5.016 24.6374 6.024C25.6134 7.016 26.1014 8.408 26.1014 10.2V18H22.7414V10.656C22.7414 9.6 22.4774 8.792 21.9494 8.232C21.4214 7.656 20.7014 7.368 19.7894 7.368C18.8614 7.368 18.1254 7.656 17.5814 8.232C17.0534 8.792 16.7894 9.6 16.7894 10.656V18H13.4294V4.704H16.7894V6.36C17.2374 5.784 17.8054 5.336 18.4934 5.016C19.1974 4.68 19.9654 4.512 20.7974 4.512ZM32.6566 6.768C33.0886 6.064 33.6486 5.512 34.3366 5.112C35.0406 4.712 35.8406 4.512 36.7366 4.512V8.04H35.8486C34.7926 8.04 33.9926 8.288 33.4486 8.784C32.9206 9.28 32.6566 10.144 32.6566 11.376V18H29.2966V4.704H32.6566V6.768ZM44.9038 18.216C43.6238 18.216 42.4718 17.936 41.4478 17.376C40.4238 16.8 39.6158 15.992 39.0238 14.952C38.4478 13.912 38.1598 12.712 38.1598 11.352C38.1598 9.992 38.4558 8.792 39.0478 7.752C39.6558 6.712 40.4798 5.912 41.5198 5.352C42.5598 4.776 43.7198 4.488 44.9998 4.488C46.2798 4.488 47.4398 4.776 48.4798 5.352C49.5198 5.912 50.3358 6.712 50.9278 7.752C51.5358 8.792 51.8398 9.992 51.8398 11.352C51.8398 12.712 51.5278 13.912 50.9037 14.952C50.2958 15.992 49.4638 16.8 48.4078 17.376C47.3678 17.936 46.1998 18.216 44.9038 18.216ZM44.9038 15.288C45.5118 15.288 46.0798 15.144 46.6078 14.856C47.1518 14.552 47.5838 14.104 47.9038 13.512C48.2238 12.92 48.3838 12.2 48.3838 11.352C48.3838 10.088 48.0478 9.12 47.3758 8.448C46.7198 7.76 45.9118 7.416 44.9518 7.416C43.9918 7.416 43.1838 7.76 42.5278 8.448C41.8878 9.12 41.5678 10.088 41.5678 11.352C41.5678 12.616 41.8798 13.592 42.5038 14.28C43.1438 14.952 43.9438 15.288 44.9038 15.288ZM57.6644 0.24V18H54.3044V0.24H57.6644ZM64.3441 0.24V18H60.9841V0.24H64.3441ZM80.0238 11.064C80.0238 11.544 79.9918 11.976 79.9278 12.36H70.2078C70.2878 13.32 70.6238 14.072 71.2158 14.616C71.8078 15.16 72.5358 15.432 73.3998 15.432C74.6478 15.432 75.5358 14.896 76.0638 13.824H79.6878C79.3038 15.104 78.5678 16.16 77.4798 16.992C76.3918 17.808 75.0558 18.216 73.4718 18.216C72.1918 18.216 71.0398 17.936 70.0158 17.376C69.0078 16.8 68.2158 15.992 67.6398 14.952C67.0798 13.912 66.7998 12.712 66.7998 11.352C66.7998 9.976 67.0798 8.768 67.6398 7.728C68.1998 6.688 68.9838 5.888 69.9918 5.328C70.9998 4.768 72.1598 4.488 73.4718 4.488C74.7358 4.488 75.8638 4.76 76.8558 5.304C77.8638 5.848 78.6398 6.624 79.1838 7.632C79.7438 8.624 80.0238 9.768 80.0238 11.064ZM76.5438 10.104C76.5278 9.24 76.2158 8.552 75.6078 8.04C74.9998 7.512 74.2558 7.248 73.3758 7.248C72.5438 7.248 71.8398 7.504 71.2638 8.016C70.7038 8.512 70.3598 9.208 70.2318 10.104H76.5438ZM81.6123 11.304C81.6123 9.96 81.8763 8.768 82.4043 7.728C82.9483 6.688 83.6843 5.888 84.6123 5.328C85.5403 4.768 86.5723 4.488 87.7083 4.488C88.5723 4.488 89.3963 4.68 90.1803 5.064C90.9643 5.432 91.5883 5.928 92.0523 6.552V0.24H95.4603V18H92.0523V16.032C91.6363 16.688 91.0523 17.216 90.3003 17.616C89.5483 18.016 88.6763 18.216 87.6843 18.216C86.5643 18.216 85.5403 17.928 84.6123 17.352C83.6843 16.776 82.9483 15.968 82.4043 14.928C81.8763 13.872 81.6123 12.664 81.6123 11.304ZM92.0763 11.352C92.0763 10.536 91.9163 9.84 91.5963 9.264C91.2763 8.672 90.8443 8.224 90.3003 7.92C89.7563 7.6 89.1723 7.44 88.5483 7.44C87.9243 7.44 87.3483 7.592 86.8203 7.896C86.2923 8.2 85.8603 8.648 85.5243 9.24C85.2043 9.816 85.0443 10.504 85.0443 11.304C85.0443 12.104 85.2043 12.808 85.5243 13.416C85.8603 14.008 86.2923 14.464 86.8203 14.784C87.3643 15.104 87.9403 15.264 88.5483 15.264C89.1723 15.264 89.7563 15.112 90.3003 14.808C90.8443 14.488 91.2763 14.04 91.5963 13.464C91.9163 12.872 92.0763 12.168 92.0763 11.352ZM103.645 9.6C103.645 7.952 104.013 6.48 104.749 5.184C105.501 3.872 106.517 2.856 107.797 2.136C109.093 1.4 110.541 1.032 112.141 1.032C114.013 1.032 115.653 1.512 117.061 2.472C118.469 3.432 119.453 4.76 120.013 6.456H116.149C115.765 5.656 115.221 5.056 114.517 4.656C113.829 4.256 113.029 4.056 112.117 4.056C111.141 4.056 110.269 4.288 109.501 4.752C108.749 5.2 108.157 5.84 107.725 6.672C107.309 7.504 107.101 8.48 107.101 9.6C107.101 10.704 107.309 11.68 107.725 12.528C108.157 13.36 108.749 14.008 109.501 14.472C110.269 14.92 111.141 15.144 112.117 15.144C113.029 15.144 113.829 14.944 114.517 14.544C115.221 14.128 115.765 13.52 116.149 12.72H120.013C119.453 14.432 118.469 15.768 117.061 16.728C115.669 17.672 114.029 18.144 112.141 18.144C110.541 18.144 109.093 17.784 107.797 17.064C106.517 16.328 105.501 15.312 104.749 14.016C104.013 12.72 103.645 11.248 103.645 9.6ZM126.243 0.24V18H122.883V0.24H126.243ZM128.698 11.304C128.698 9.96 128.962 8.768 129.49 7.728C130.034 6.688 130.762 5.888 131.674 5.328C132.602 4.768 133.634 4.488 134.77 4.488C135.762 4.488 136.626 4.688 137.362 5.088C138.114 5.488 138.714 5.992 139.162 6.6V4.704H142.546V18H139.162V16.056C138.73 16.68 138.13 17.2 137.362 17.616C136.61 18.016 135.738 18.216 134.746 18.216C133.626 18.216 132.602 17.928 131.674 17.352C130.762 16.776 130.034 15.968 129.49 14.928C128.962 13.872 128.698 12.664 128.698 11.304ZM139.162 11.352C139.162 10.536 139.002 9.84 138.682 9.264C138.362 8.672 137.93 8.224 137.386 7.92C136.842 7.6 136.258 7.44 135.634 7.44C135.01 7.44 134.434 7.592 133.906 7.896C133.378 8.2 132.946 8.648 132.61 9.24C132.29 9.816 132.13 10.504 132.13 11.304C132.13 12.104 132.29 12.808 132.61 13.416C132.946 14.008 133.378 14.464 133.906 14.784C134.45 15.104 135.026 15.264 135.634 15.264C136.258 15.264 136.842 15.112 137.386 14.808C137.93 14.488 138.362 14.04 138.682 13.464C139.002 12.872 139.162 12.168 139.162 11.352ZM150.916 18.216C149.828 18.216 148.852 18.024 147.988 17.64C147.124 17.24 146.436 16.704 145.924 16.032C145.428 15.36 145.156 14.616 145.108 13.8H148.492C148.556 14.312 148.804 14.736 149.236 15.072C149.684 15.408 150.236 15.576 150.892 15.576C151.532 15.576 152.028 15.448 152.38 15.192C152.748 14.936 152.932 14.608 152.932 14.208C152.932 13.776 152.708 13.456 152.26 13.248C151.828 13.024 151.132 12.784 150.172 12.528C149.18 12.288 148.364 12.04 147.724 11.784C147.1 11.528 146.556 11.136 146.092 10.608C145.644 10.08 145.42 9.368 145.42 8.472C145.42 7.736 145.628 7.064 146.044 6.456C146.476 5.848 147.084 5.368 147.868 5.016C148.668 4.664 149.604 4.488 150.676 4.488C152.26 4.488 153.524 4.888 154.468 5.688C155.412 6.472 155.932 7.536 156.028 8.88H152.812C152.764 8.352 152.54 7.936 152.14 7.632C151.756 7.312 151.236 7.152 150.58 7.152C149.972 7.152 149.5 7.264 149.164 7.488C148.844 7.712 148.684 8.024 148.684 8.424C148.684 8.872 148.908 9.216 149.356 9.456C149.804 9.68 150.5 9.912 151.444 10.152C152.404 10.392 153.196 10.64 153.82 10.896C154.444 11.152 154.98 11.552 155.428 12.096C155.892 12.624 156.132 13.328 156.148 14.208C156.148 14.976 155.932 15.664 155.5 16.272C155.084 16.88 154.476 17.36 153.676 17.712C152.892 18.048 151.972 18.216 150.916 18.216ZM163.994 18.216C162.906 18.216 161.93 18.024 161.066 17.64C160.202 17.24 159.514 16.704 159.002 16.032C158.506 15.36 158.234 14.616 158.186 13.8H161.57C161.634 14.312 161.882 14.736 162.314 15.072C162.762 15.408 163.314 15.576 163.97 15.576C164.61 15.576 165.106 15.448 165.458 15.192C165.826 14.936 166.01 14.608 166.01 14.208C166.01 13.776 165.786 13.456 165.338 13.248C164.906 13.024 164.21 12.784 163.25 12.528C162.258 12.288 161.442 12.04 160.802 11.784C160.178 11.528 159.634 11.136 159.17 10.608C158.722 10.08 158.498 9.368 158.498 8.472C158.498 7.736 158.706 7.064 159.122 6.456C159.554 5.848 160.162 5.368 160.946 5.016C161.746 4.664 162.682 4.488 163.754 4.488C165.338 4.488 166.602 4.888 167.546 5.688C168.49 6.472 169.01 7.536 169.106 8.88H165.89C165.842 8.352 165.618 7.936 165.218 7.632C164.834 7.312 164.314 7.152 163.658 7.152C163.05 7.152 162.578 7.264 162.242 7.488C161.922 7.712 161.762 8.024 161.762 8.424C161.762 8.872 161.986 9.216 162.434 9.456C162.882 9.68 163.578 9.912 164.522 10.152C165.482 10.392 166.274 10.64 166.898 10.896C167.522 11.152 168.058 11.552 168.506 12.096C168.97 12.624 169.21 13.328 169.226 14.208C169.226 14.976 169.01 15.664 168.578 16.272C168.162 16.88 167.554 17.36 166.754 17.712C165.97 18.048 165.05 18.216 163.994 18.216Z" fill="#5B25D9"/>
</svg>
