<svg width="48" height="48" viewBox="0 0 48 48" fill="none" xmlns="http://www.w3.org/2000/svg">
<rect width="48" height="48" rx="8" fill="#5B25D9" fill-opacity="0.32"/>
<path opacity="0.4" d="M29.588 10.6667H18.4133C14.36 10.6667 12 13.04 12 17.1067V30.88C12 35.0133 14.36 37.3333 18.4133 37.3333H29.588C33.7067 37.3333 36 35.0133 36 30.88V17.1067C36 13.04 33.7067 10.6667 29.588 10.6667" fill="#5B25D9"/>
<path fill-rule="evenodd" clip-rule="evenodd" d="M18.7733 16.8667V16.88C18.1986 16.88 17.7333 17.3467 17.7333 17.92C17.7333 18.4933 18.1986 18.96 18.7733 18.96H22.7586C23.3333 18.96 23.7999 18.4933 23.7999 17.9053C23.7999 17.3333 23.3333 16.8667 22.7586 16.8667H18.7733ZM29.2266 24.9867H18.7733C18.1986 24.9867 17.7333 24.52 17.7333 23.9467C17.7333 23.3733 18.1986 22.9053 18.7733 22.9053H29.2266C29.7999 22.9053 30.2666 23.3733 30.2666 23.9467C30.2666 24.52 29.7999 24.9867 29.2266 24.9867ZM29.2266 31.08H18.7733C18.3733 31.1333 17.9866 30.9333 17.7733 30.6C17.5599 30.2533 17.5599 29.8133 17.7733 29.48C17.9866 29.1333 18.3733 28.9467 18.7733 28.9867H29.2266C29.7586 29.04 30.1599 29.4933 30.1599 30.04C30.1599 30.572 29.7586 31.0267 29.2266 31.08Z" fill="#5B25D9"/>
</svg>
