<svg width="32" height="32" viewBox="0 0 32 32" fill="none" xmlns="http://www.w3.org/2000/svg">
<path opacity="0.4" d="M28.4414 9.9235C27.8827 9.57156 27.1961 9.54042 26.6107 9.83822L24.6347 10.8359C23.904 11.204 23.4507 11.9485 23.4507 12.777V20.555C23.4507 21.3834 23.904 22.1265 24.6347 22.4974L26.6094 23.4937C26.8774 23.6318 27.1641 23.6981 27.4507 23.6981C27.7947 23.6981 28.1361 23.6007 28.4414 23.4098C29.0001 23.0592 29.3334 22.4514 29.3334 21.7854V11.5492C29.3334 10.8832 29.0001 10.2754 28.4414 9.9235Z" fill="#5B25D9"/>
<path d="M15.8733 26.6665H8.15056C4.92119 26.6665 2.6665 24.4398 2.6665 21.252V12.0811C2.6665 8.89188 4.92119 6.6665 8.15056 6.6665H15.8733C19.1027 6.6665 21.3574 8.89188 21.3574 12.0811V21.252C21.3574 24.4398 19.1027 26.6665 15.8733 26.6665Z" fill="#5B25D9"/>
</svg>
