<svg width="48" height="48" viewBox="0 0 48 48" fill="none" xmlns="http://www.w3.org/2000/svg">
<rect width="48" height="48" rx="12" fill="#5B25D9" fill-opacity="0.32"/>
<path fill-rule="evenodd" clip-rule="evenodd" d="M12 30.4935V20.3428H36V30.5748C36 34.7602 33.3655 37.3335 29.1504 37.3335H18.8364C14.6608 37.3335 12 34.7068 12 30.4935ZM18.6125 27.2135C18.0066 27.2415 17.506 26.7602 17.4797 26.1482C17.4797 25.5348 17.9539 25.0282 18.5598 25.0002C19.1526 25.0002 19.64 25.4682 19.6531 26.0668C19.6795 26.6815 19.2053 27.1882 18.6125 27.2135ZM24.0263 27.2135C23.4204 27.2415 22.9199 26.7602 22.8935 26.1482C22.8935 25.5348 23.3677 25.0282 23.9737 25.0002C24.5664 25.0002 25.0538 25.4682 25.067 26.0668C25.0933 26.6815 24.6191 27.1882 24.0263 27.2135ZM29.4007 32.1202C28.7947 32.1068 28.3074 31.6002 28.3074 30.9868C28.2942 30.3735 28.7816 29.8682 29.3875 29.8548H29.4007C30.0198 29.8548 30.5203 30.3615 30.5203 30.9868C30.5203 31.6135 30.0198 32.1202 29.4007 32.1202ZM22.8935 30.9868C22.9199 31.6002 23.4204 32.0815 24.0263 32.0535C24.6191 32.0282 25.0933 31.5215 25.067 30.9082C25.0538 30.3082 24.5664 29.8402 23.9737 29.8402C23.3677 29.8682 22.8935 30.3735 22.8935 30.9868ZM17.4665 30.9868C17.4929 31.6002 17.9934 32.0815 18.5993 32.0535C19.1921 32.0282 19.6663 31.5215 19.64 30.9082C19.6268 30.3082 19.1394 29.8402 18.5467 29.8402C17.9407 29.8682 17.4665 30.3735 17.4665 30.9868ZM28.3205 26.1348C28.3205 25.5215 28.7947 25.0282 29.4007 25.0148C29.9934 25.0148 30.4676 25.4935 30.494 26.0815C30.5071 26.6948 30.0329 27.2015 29.4402 27.2135C28.8342 27.2268 28.3337 26.7602 28.3205 26.1482V26.1348Z" fill="#5B25D9"/>
<path opacity="0.4" d="M12.0044 20.3427C12.0215 19.56 12.0874 18.0067 12.2112 17.5067C12.8435 14.6947 14.9906 12.908 18.0597 12.6533H29.9412C32.984 12.9213 35.1574 14.72 35.7897 17.5067C35.9122 17.9933 35.978 19.5587 35.9952 20.3427H12.0044Z" fill="#5B25D9"/>
<path d="M19.0734 16.7868C19.6529 16.7868 20.0876 16.3481 20.0876 15.7601V11.6948C20.0876 11.1068 19.6529 10.6668 19.0734 10.6668C18.4938 10.6668 18.0591 11.1068 18.0591 11.6948V15.7601C18.0591 16.3481 18.4938 16.7868 19.0734 16.7868Z" fill="#5B25D9"/>
<path d="M28.9264 16.7868C29.4928 16.7868 29.9406 16.3481 29.9406 15.7601V11.6948C29.9406 11.1068 29.4928 10.6668 28.9264 10.6668C28.3468 10.6668 27.9121 11.1068 27.9121 11.6948V15.7601C27.9121 16.3481 28.3468 16.7868 28.9264 16.7868Z" fill="#5B25D9"/>
</svg>
