<svg width="48" height="48" viewBox="0 0 48 48" fill="none" xmlns="http://www.w3.org/2000/svg">
<rect width="48" height="48" rx="12" fill="#5B25D9" fill-opacity="0.32"/>
<path opacity="0.4" d="M37.3332 29.2536C37.3332 32.9736 34.3465 35.9869 30.6265 36.0003H30.6132H17.3998C13.6932 36.0003 10.6665 33.0003 10.6665 29.2803V29.2669C10.6665 29.2669 10.6745 23.3656 10.6852 20.3976C10.6865 19.8403 11.3265 19.5283 11.7625 19.8749C14.9305 22.3883 20.5958 26.9709 20.6665 27.0309C21.6132 27.7896 22.8132 28.2176 24.0398 28.2176C25.2665 28.2176 26.4665 27.7896 27.4132 27.0163C27.4838 26.9696 33.0225 22.5243 36.2385 19.9696C36.6758 19.6216 37.3185 19.9336 37.3198 20.4896C37.3332 23.4349 37.3332 29.2536 37.3332 29.2536Z" fill="#5B25D9"/>
<path d="M36.6347 15.5648C35.48 13.3888 33.208 11.9995 30.7067 11.9995H17.4C14.8987 11.9995 12.6267 13.3888 11.472 15.5648C11.2133 16.0515 11.336 16.6581 11.7667 17.0021L21.6667 24.9208C22.36 25.4808 23.2 25.7594 24.04 25.7594C24.0453 25.7594 24.0493 25.7594 24.0533 25.7594C24.0573 25.7594 24.0627 25.7594 24.0667 25.7594C24.9067 25.7594 25.7467 25.4808 26.44 24.9208L36.34 17.0021C36.7707 16.6581 36.8933 16.0515 36.6347 15.5648Z" fill="#5B25D9"/>
</svg>
