<svg width="48" height="48" viewBox="0 0 48 48" fill="none" xmlns="http://www.w3.org/2000/svg">
<rect width="48" height="48" rx="12" fill="#5B25D9" fill-opacity="0.32"/>
<path fill-rule="evenodd" clip-rule="evenodd" d="M19.3753 11.9157C22.2885 10.2231 25.8692 10.2526 28.755 11.9932C31.6125 13.7692 33.3491 16.9389 33.3329 20.3486C33.2664 23.7359 31.4042 26.92 29.0765 29.3815C27.733 30.8086 26.23 32.0705 24.5983 33.1414C24.4302 33.2386 24.2462 33.3036 24.0552 33.3334C23.8713 33.3255 23.6923 33.2712 23.5342 33.1753C21.0431 31.5661 18.8576 29.5121 17.0829 27.112C15.598 25.1085 14.7543 22.688 14.6665 20.1792C14.6646 16.763 16.4622 13.6084 19.3753 11.9157ZM21.0587 21.5931C21.5488 22.8011 22.7054 23.5891 23.9886 23.5892C24.8293 23.5952 25.6374 23.2585 26.2329 22.654C26.8284 22.0495 27.1618 21.2275 27.1588 20.3712C27.1633 19.0641 26.3938 17.8831 25.2095 17.3797C24.0253 16.8763 22.6599 17.1498 21.7509 18.0725C20.842 18.9951 20.5687 20.385 21.0587 21.5931Z" fill="#5B25D9"/>
<ellipse opacity="0.4" cx="23.9997" cy="36" rx="6.66667" ry="1.33333" fill="#5B25D9"/>
</svg>
