<svg width="48" height="48" viewBox="0 0 48 48" fill="none" xmlns="http://www.w3.org/2000/svg">
<rect width="48" height="48" rx="12" fill="#5B25D9" fill-opacity="0.32"/>
<path opacity="0.4" d="M10.667 22.7713C10.7337 25.8886 10.9203 31.2206 10.947 31.8086C11.0417 33.066 11.523 34.3366 12.2723 35.2326C13.315 36.49 14.599 37.0513 16.3897 37.0513C18.8643 37.0646 21.5923 37.0646 24.2417 37.0646C26.9017 37.0646 29.483 37.0646 31.663 37.0513C33.4283 37.0513 34.7523 36.4753 35.7817 35.2326C36.531 34.3366 37.0123 33.0526 37.0803 31.8086C37.107 31.314 37.2403 25.526 37.3203 22.7713H10.667Z" fill="#5B25D9"/>
<path d="M22.9941 28.5123V30.2376C22.9941 30.7896 23.4421 31.2376 23.9941 31.2376C24.5461 31.2376 24.9941 30.7896 24.9941 30.2376V28.5123C24.9941 27.9603 24.5461 27.5123 23.9941 27.5123C23.4421 27.5123 22.9941 27.9603 22.9941 28.5123Z" fill="#5B25D9"/>
<path fill-rule="evenodd" clip-rule="evenodd" d="M21.615 27.4085C21.4817 27.8925 21.0163 28.2018 20.5123 28.1352C17.111 27.6605 13.8603 26.4538 11.1163 24.6418C10.835 24.4578 10.667 24.1432 10.667 23.8072V19.1858C10.667 16.3858 12.9497 14.1085 15.7563 14.1085H18.379C18.6297 12.1725 20.2697 10.6672 22.2723 10.6672H25.715C27.7163 10.6672 29.3577 12.1725 29.6083 14.1085H32.2443C35.043 14.1085 37.3203 16.3858 37.3203 19.1858V23.8072C37.3203 24.1432 37.151 24.4565 36.8723 24.6418C34.123 26.4618 30.859 27.6738 27.435 28.1472C27.3883 28.1538 27.343 28.1565 27.2977 28.1565C26.8457 28.1565 26.4417 27.8512 26.3283 27.4032C26.059 26.3418 25.095 25.5992 23.987 25.5992C22.8643 25.5992 21.911 26.3258 21.615 27.4085ZM25.715 12.6672H22.2723C21.375 12.6672 20.6257 13.2805 20.4017 14.1085H27.5843C27.3603 13.2805 26.611 12.6672 25.715 12.6672Z" fill="#5B25D9"/>
</svg>
