<svg width="32" height="32" viewBox="0 0 32 32" fill="none" xmlns="http://www.w3.org/2000/svg">
<path opacity="0.4" fill-rule="evenodd" clip-rule="evenodd" d="M7.88037 27.4515C7.88037 26.3315 8.78704 25.4248 9.90704 25.4248C11.0137 25.4248 11.9204 26.3315 11.9204 27.4515C11.9204 28.5581 11.0137 29.4648 9.90704 29.4648C8.78704 29.4648 7.88037 28.5581 7.88037 27.4515ZM22.8804 27.4515C22.8804 26.3315 23.787 25.4248 24.907 25.4248C26.0137 25.4248 26.9204 26.3315 26.9204 27.4515C26.9204 28.5581 26.0137 29.4648 24.907 29.4648C23.787 29.4648 22.8804 28.5581 22.8804 27.4515Z" fill="#5B25D9"/>
<path fill-rule="evenodd" clip-rule="evenodd" d="M26.9208 8.46545C27.7342 8.46545 28.2675 8.74545 28.8008 9.35878C29.3342 9.97212 29.4275 10.8521 29.3075 11.6508L28.0408 20.3974C27.8008 22.0788 26.3608 23.3174 24.6675 23.3174H10.1208C8.34749 23.3174 6.88083 21.9574 6.73416 20.1988L5.50749 5.66412L3.49416 5.31745C2.96083 5.22412 2.58749 4.70412 2.68083 4.17078C2.77416 3.62412 3.29416 3.26412 3.84083 3.34412L7.02083 3.82412C7.47416 3.90545 7.80749 4.27745 7.84749 4.73078L8.10083 7.71745C8.14083 8.14545 8.48749 8.46545 8.91416 8.46545H26.9208ZM18.8408 15.3974H22.5342C23.0942 15.3974 23.5342 14.9441 23.5342 14.3974C23.5342 13.8374 23.0942 13.3974 22.5342 13.3974H18.8408C18.2808 13.3974 17.8408 13.8374 17.8408 14.3974C17.8408 14.9441 18.2808 15.3974 18.8408 15.3974Z" fill="#5B25D9"/>
</svg>
