<svg width="32" height="32" viewBox="0 0 32 32" fill="none" xmlns="http://www.w3.org/2000/svg">
<path fill-rule="evenodd" clip-rule="evenodd" d="M4 22.4935V12.3428H28V22.5748C28 26.7602 25.3655 29.3335 21.1504 29.3335H10.8364C6.66081 29.3335 4 26.7068 4 22.4935ZM10.6125 19.2135C10.0066 19.2415 9.50604 18.7602 9.47969 18.1482C9.47969 17.5348 9.9539 17.0282 10.5598 17.0002C11.1526 17.0002 11.64 17.4682 11.6531 18.0668C11.6795 18.6815 11.2053 19.1882 10.6125 19.2135ZM16.0263 19.2135C15.4204 19.2415 14.9199 18.7602 14.8935 18.1482C14.8935 17.5348 15.3677 17.0282 15.9737 17.0002C16.5664 17.0002 17.0538 17.4682 17.067 18.0668C17.0933 18.6815 16.6191 19.1882 16.0263 19.2135ZM21.4007 24.1202C20.7947 24.1068 20.3074 23.6002 20.3074 22.9868C20.2942 22.3735 20.7816 21.8682 21.3875 21.8548H21.4007C22.0198 21.8548 22.5203 22.3615 22.5203 22.9868C22.5203 23.6135 22.0198 24.1202 21.4007 24.1202ZM14.8935 22.9868C14.9199 23.6002 15.4204 24.0815 16.0263 24.0535C16.6191 24.0282 17.0933 23.5215 17.067 22.9082C17.0538 22.3082 16.5664 21.8402 15.9737 21.8402C15.3677 21.8682 14.8935 22.3735 14.8935 22.9868ZM9.46652 22.9868C9.49287 23.6002 9.99341 24.0815 10.5993 24.0535C11.1921 24.0282 11.6663 23.5215 11.64 22.9082C11.6268 22.3082 11.1394 21.8402 10.5467 21.8402C9.94072 21.8682 9.46652 22.3735 9.46652 22.9868ZM20.3205 18.1348C20.3205 17.5215 20.7947 17.0282 21.4007 17.0148C21.9934 17.0148 22.4676 17.4935 22.494 18.0815C22.5071 18.6948 22.0329 19.2015 21.4402 19.2135C20.8342 19.2268 20.3337 18.7602 20.3205 18.1482V18.1348Z" fill="#5B25D9"/>
<path opacity="0.4" d="M4.00439 12.3427C4.02152 11.56 4.08738 10.0067 4.2112 9.50665C4.84347 6.69465 6.99056 4.90799 10.0597 4.65332H21.9412C24.984 4.92132 27.1574 6.71999 27.7897 9.50665C27.9122 9.99332 27.978 11.5587 27.9952 12.3427H4.00439Z" fill="#5B25D9"/>
<path d="M11.0734 8.78681C11.6529 8.78681 12.0876 8.34814 12.0876 7.76014V3.69481C12.0876 3.10681 11.6529 2.66681 11.0734 2.66681C10.4938 2.66681 10.0591 3.10681 10.0591 3.69481V7.76014C10.0591 8.34814 10.4938 8.78681 11.0734 8.78681Z" fill="#5B25D9"/>
<path d="M20.9264 8.78681C21.4928 8.78681 21.9406 8.34814 21.9406 7.76014V3.69481C21.9406 3.10681 21.4928 2.66681 20.9264 2.66681C20.3468 2.66681 19.9121 3.10681 19.9121 3.69481V7.76014C19.9121 8.34814 20.3468 8.78681 20.9264 8.78681Z" fill="#5B25D9"/>
</svg>
