<svg width="32" height="32" viewBox="0 0 32 32" fill="none" xmlns="http://www.w3.org/2000/svg">
<path opacity="0.4" d="M21.434 2.66699H25.9486C27.8183 2.66699 29.3333 4.19479 29.3333 6.08028V10.633C29.3333 12.5185 27.8183 14.0463 25.9486 14.0463H21.434C19.5643 14.0463 18.0493 12.5185 18.0493 10.633V6.08028C18.0493 4.19479 19.5643 2.66699 21.434 2.66699" fill="white"/>
<path fill-rule="evenodd" clip-rule="evenodd" d="M6.0512 2.66699H10.5658C12.4355 2.66699 13.9505 4.19479 13.9505 6.08028V10.633C13.9505 12.5185 12.4355 14.0463 10.5658 14.0463H6.0512C4.18151 14.0463 2.6665 12.5185 2.6665 10.633V6.08028C2.6665 4.19479 4.18151 2.66699 6.0512 2.66699ZM6.0512 17.9543H10.5658C12.4355 17.9543 13.9505 19.4821 13.9505 21.3676V25.9204C13.9505 27.8046 12.4355 29.3337 10.5658 29.3337H6.0512C4.18151 29.3337 2.6665 27.8046 2.6665 25.9204V21.3676C2.6665 19.4821 4.18151 17.9543 6.0512 17.9543ZM25.9485 17.9543H21.4339C19.5642 17.9543 18.0492 19.4821 18.0492 21.3676V25.9204C18.0492 27.8046 19.5642 29.3337 21.4339 29.3337H25.9485C27.8182 29.3337 29.3332 27.8046 29.3332 25.9204V21.3676C29.3332 19.4821 27.8182 17.9543 25.9485 17.9543Z" fill="#5B25D9"/>
</svg>
