<svg width="48" height="48" viewBox="0 0 48 48" fill="none" xmlns="http://www.w3.org/2000/svg">
<rect width="48" height="48" rx="8" fill="#5B25D9" fill-opacity="0.32"/>
<path opacity="0.4" d="M29.588 10.667H18.4133C14.36 10.667 12 13.0403 12 17.107V30.8803C12 35.0137 14.36 37.3337 18.4133 37.3337H29.588C33.7067 37.3337 36 35.0137 36 30.8803V17.107C36 13.0403 33.7067 10.667 29.588 10.667Z" fill="#5B25D9"/>
<path fill-rule="evenodd" clip-rule="evenodd" d="M18.7733 16.8672V16.8805C18.1986 16.8805 17.7333 17.3472 17.7333 17.9205C17.7333 18.4939 18.1986 18.9605 18.7733 18.9605H22.7586C23.3333 18.9605 23.7999 18.4939 23.7999 17.9059C23.7999 17.3339 23.3333 16.8672 22.7586 16.8672H18.7733ZM29.2266 24.9872H18.7733C18.1986 24.9872 17.7333 24.5205 17.7333 23.9472C17.7333 23.3739 18.1986 22.9059 18.7733 22.9059H29.2266C29.7999 22.9059 30.2666 23.3739 30.2666 23.9472C30.2666 24.5205 29.7999 24.9872 29.2266 24.9872ZM29.2266 31.0805H18.7733C18.3733 31.1339 17.9866 30.9339 17.7733 30.6005C17.5599 30.2539 17.5599 29.8139 17.7733 29.4805C17.9866 29.1339 18.3733 28.9472 18.7733 28.9872H29.2266C29.7586 29.0405 30.1599 29.4939 30.1599 30.0405C30.1599 30.5725 29.7586 31.0272 29.2266 31.0805Z" fill="#5B25D9"/>
</svg>
