<svg width="32" height="32" viewBox="0 0 32 32" fill="none" xmlns="http://www.w3.org/2000/svg">
<path opacity="0.4" d="M21.588 2.66699H10.4133C6.36 2.66699 4 5.04033 4 9.10699V22.8803C4 27.0137 6.36 29.3337 10.4133 29.3337H21.588C25.7067 29.3337 28 27.0137 28 22.8803V9.10699C28 5.04033 25.7067 2.66699 21.588 2.66699Z" fill="#5B25D9"/>
<path fill-rule="evenodd" clip-rule="evenodd" d="M10.7733 8.86719V8.88052C10.1986 8.88052 9.73328 9.34719 9.73328 9.92052C9.73328 10.4939 10.1986 10.9605 10.7733 10.9605H14.7586C15.3333 10.9605 15.7999 10.4939 15.7999 9.90585C15.7999 9.33385 15.3333 8.86719 14.7586 8.86719H10.7733ZM21.2266 16.9872H10.7733C10.1986 16.9872 9.73328 16.5205 9.73328 15.9472C9.73328 15.3739 10.1986 14.9059 10.7733 14.9059H21.2266C21.7999 14.9059 22.2666 15.3739 22.2666 15.9472C22.2666 16.5205 21.7999 16.9872 21.2266 16.9872ZM21.2266 23.0805H10.7733C10.3733 23.1339 9.98661 22.9339 9.77328 22.6005C9.55995 22.2539 9.55995 21.8139 9.77328 21.4805C9.98661 21.1339 10.3733 20.9472 10.7733 20.9872H21.2266C21.7586 21.0405 22.1599 21.4939 22.1599 22.0405C22.1599 22.5725 21.7586 23.0272 21.2266 23.0805Z" fill="#5B25D9"/>
</svg>
