<svg width="32" height="32" viewBox="0 0 32 32" fill="none" xmlns="http://www.w3.org/2000/svg">
<path fill-rule="evenodd" clip-rule="evenodd" d="M11.3753 3.91572C14.2885 2.22305 17.8692 2.25264 20.755 3.99321C23.6125 5.76924 25.3491 8.93892 25.3329 12.3486C25.2664 15.7359 23.4042 18.92 21.0765 21.3815C19.733 22.8086 18.23 24.0705 16.5983 25.1414C16.4302 25.2386 16.2462 25.3036 16.0552 25.3334C15.8713 25.3255 15.6923 25.2712 15.5342 25.1753C13.0431 23.5661 10.8576 21.5121 9.08295 19.112C7.59796 17.1085 6.75428 14.688 6.66651 12.1792C6.66458 8.76301 8.46219 5.60838 11.3753 3.91572ZM13.0587 13.5931C13.5488 14.8011 14.7054 15.5891 15.9886 15.5892C16.8293 15.5952 17.6374 15.2585 18.2329 14.654C18.8284 14.0495 19.1618 13.2275 19.1588 12.3712C19.1633 11.0641 18.3938 9.8831 17.2095 9.37972C16.0253 8.87633 14.6599 9.14982 13.7509 10.0725C12.842 10.9951 12.5687 12.385 13.0587 13.5931Z" fill="#5B25D9"/>
<ellipse opacity="0.4" cx="15.9997" cy="28" rx="6.66667" ry="1.33333" fill="#5B25D9"/>
</svg>
