<svg width="32" height="32" viewBox="0 0 32 32" fill="none" xmlns="http://www.w3.org/2000/svg">
<path opacity="0.4" d="M2.6665 8.59633C2.6665 5.32833 5.37349 2.66699 8.69921 2.66699H15.314C18.633 2.66699 21.3332 5.32033 21.3332 8.58299V23.4043C21.3332 26.6737 18.6262 29.3337 15.2991 29.3337H8.687C5.36671 29.3337 2.6665 26.6803 2.6665 23.4177V22.1643V8.59633Z" fill="#FA0000"/>
<path d="M29.0386 15.2731L25.2442 11.3944C24.8521 10.9944 24.221 10.9944 23.8301 11.3971C23.4405 11.7997 23.4418 12.4491 23.8327 12.8491L25.9117 14.9731H23.9184H12.7313C12.1794 14.9731 11.7314 15.4331 11.7314 15.9997C11.7314 16.5677 12.1794 17.0264 12.7313 17.0264H25.9117L23.8327 19.1504C23.4418 19.5504 23.4405 20.1997 23.8301 20.6024C24.0262 20.8037 24.282 20.9051 24.5391 20.9051C24.7936 20.9051 25.0495 20.8037 25.2442 20.6051L29.0386 16.7277C29.2269 16.5344 29.3334 16.2731 29.3334 15.9997C29.3334 15.7277 29.2269 15.4664 29.0386 15.2731Z" fill="#FA0000"/>
</svg>
