<svg width="34" height="38" viewBox="0 0 34 38" fill="none" xmlns="http://www.w3.org/2000/svg">
<g filter="url(#filter0_d_231_16103)">
<path d="M17.0158 19.7736C14.8765 19.7736 13.146 18.1069 13.146 16.0136C13.146 13.9202 14.8765 12.2402 17.0158 12.2402C19.1551 12.2402 20.8447 13.9202 20.8447 16.0136C20.8447 18.1069 19.1551 19.7736 17.0158 19.7736Z" fill="#5B25D9"/>
<path opacity="0.4" d="M29.3065 19.1603C29.0476 18.7603 28.6797 18.3603 28.2028 18.107C27.8213 17.9203 27.576 17.6137 27.358 17.2537C26.6631 16.107 27.0718 14.6003 28.2301 13.9203C29.5927 13.1603 30.0287 11.467 29.2384 10.147L28.3254 8.57366C27.5487 7.25366 25.8455 6.78699 24.4965 7.56033C23.2974 8.20033 21.7577 7.77366 21.0627 6.64033C20.8447 6.26699 20.7221 5.86699 20.7493 5.46699C20.7902 4.94699 20.6267 4.45366 20.3814 4.05366C19.8773 3.22699 18.9643 2.66699 17.956 2.66699H16.0347C15.04 2.69366 14.127 3.22699 13.6229 4.05366C13.364 4.45366 13.2141 4.94699 13.2413 5.46699C13.2686 5.86699 13.146 6.26699 12.9279 6.64033C12.233 7.77366 10.6933 8.20033 9.50779 7.56033C8.14518 6.78699 6.45555 7.25366 5.66523 8.57366L4.75229 10.147C3.9756 11.467 4.41163 13.1603 5.76062 13.9203C6.91884 14.6003 7.32762 16.107 6.64631 17.2537C6.41467 17.6137 6.1694 17.9203 5.78787 18.107C5.32458 18.3603 4.9158 18.7603 4.69778 19.1603C4.19362 19.987 4.22087 21.027 4.72503 21.8937L5.66523 23.4937C6.1694 24.347 7.1096 24.8803 8.09068 24.8803C8.55397 24.8803 9.09901 24.747 9.53505 24.4803C9.8757 24.2537 10.2845 24.1737 10.7341 24.1737C12.0831 24.1737 13.2141 25.2803 13.2413 26.6003C13.2413 28.1337 14.4949 29.3337 16.0756 29.3337H17.9287C19.4957 29.3337 20.7493 28.1337 20.7493 26.6003C20.7902 25.2803 21.9212 24.1737 23.2702 24.1737C23.7062 24.1737 24.115 24.2537 24.4692 24.4803C24.9053 24.747 25.4367 24.8803 25.9136 24.8803C26.8811 24.8803 27.8213 24.347 28.3254 23.4937L29.2793 21.8937C29.7698 21.0003 29.8107 19.987 29.3065 19.1603Z" fill="#5B25D9"/>
</g>
<defs>
<filter id="filter0_d_231_16103" x="-3" y="0" width="40" height="40" filterUnits="userSpaceOnUse" color-interpolation-filters="sRGB">
<feFlood flood-opacity="0" result="BackgroundImageFix"/>
<feColorMatrix in="SourceAlpha" type="matrix" values="0 0 0 0 0 0 0 0 0 0 0 0 0 0 0 0 0 0 127 0" result="hardAlpha"/>
<feOffset dy="4"/>
<feGaussianBlur stdDeviation="2"/>
<feComposite in2="hardAlpha" operator="out"/>
<feColorMatrix type="matrix" values="0 0 0 0 0 0 0 0 0 0 0 0 0 0 0 0 0 0 0.25 0"/>
<feBlend mode="normal" in2="BackgroundImageFix" result="effect1_dropShadow_231_16103"/>
<feBlend mode="normal" in="SourceGraphic" in2="effect1_dropShadow_231_16103" result="shape"/>
</filter>
</defs>
</svg>
