<svg width="32" height="32" viewBox="0 0 32 32" fill="none" xmlns="http://www.w3.org/2000/svg">
<path opacity="0.4" d="M2.66699 14.7713C2.73366 17.8886 2.92033 23.2206 2.94699 23.8086C3.04166 25.066 3.52299 26.3366 4.27233 27.2326C5.31499 28.49 6.59899 29.0513 8.38966 29.0513C10.8643 29.0646 13.5923 29.0646 16.2417 29.0646C18.9017 29.0646 21.483 29.0646 23.663 29.0513C25.4283 29.0513 26.7523 28.4753 27.7817 27.2326C28.531 26.3366 29.0123 25.0526 29.0803 23.8086C29.107 23.314 29.2403 17.526 29.3203 14.7713H2.66699Z" fill="#5B25D9"/>
<path d="M14.9941 20.5123V22.2376C14.9941 22.7896 15.4421 23.2376 15.9941 23.2376C16.5461 23.2376 16.9941 22.7896 16.9941 22.2376V20.5123C16.9941 19.9603 16.5461 19.5123 15.9941 19.5123C15.4421 19.5123 14.9941 19.9603 14.9941 20.5123Z" fill="#5B25D9"/>
<path fill-rule="evenodd" clip-rule="evenodd" d="M13.615 19.4085C13.4817 19.8925 13.0163 20.2018 12.5123 20.1352C9.11099 19.6605 5.86033 18.4538 3.11633 16.6418C2.83499 16.4578 2.66699 16.1432 2.66699 15.8072V11.1858C2.66699 8.38584 4.94966 6.10851 7.75633 6.10851H10.379C10.6297 4.17251 12.2697 2.66718 14.2723 2.66718H17.715C19.7163 2.66718 21.3577 4.17251 21.6083 6.10851H24.2443C27.043 6.10851 29.3203 8.38584 29.3203 11.1858V15.8072C29.3203 16.1432 29.151 16.4565 28.8723 16.6418C26.123 18.4618 22.859 19.6738 19.435 20.1472C19.3883 20.1538 19.343 20.1565 19.2977 20.1565C18.8457 20.1565 18.4417 19.8512 18.3283 19.4032C18.059 18.3418 17.095 17.5992 15.987 17.5992C14.8643 17.5992 13.911 18.3258 13.615 19.4085ZM17.715 4.66718H14.2723C13.375 4.66718 12.6257 5.28051 12.4017 6.10851H19.5843C19.3603 5.28051 18.611 4.66718 17.715 4.66718Z" fill="#5B25D9"/>
</svg>
