<svg width="48" height="48" viewBox="0 0 48 48" fill="none" xmlns="http://www.w3.org/2000/svg">
<rect x="0.5" y="0.5" width="47" height="47" rx="11.5" stroke="#7C51E1"/>
<path fill-rule="evenodd" clip-rule="evenodd" d="M29.8812 11.6918L29.8825 12.6913C33.5554 12.9792 35.9815 15.4819 35.9855 19.32L36 30.5544C36.0052 34.7389 33.3763 37.3137 29.1624 37.3203L18.8692 37.3336C14.6816 37.339 12.0198 34.703 12.0145 30.5064L12 19.404C11.9947 15.5406 14.3354 13.0445 18.0082 12.7073L18.0069 11.7078C18.0056 11.1214 18.44 10.6803 19.0193 10.6803C19.5985 10.679 20.0329 11.1188 20.0342 11.7051L20.0355 12.638L27.8552 12.6273L27.8539 11.6945C27.8525 11.1081 28.287 10.6683 28.8662 10.667C29.4323 10.6657 29.8799 11.1054 29.8812 11.6918ZM14.0286 19.8157L33.9595 19.7891V19.3227C33.9029 16.4574 32.4653 14.9542 29.8851 14.7303L29.8864 15.7564C29.8864 16.3295 29.4402 16.7839 28.8741 16.7839C28.2949 16.7853 27.8591 16.3322 27.8591 15.7591L27.8578 14.6797L20.0382 14.6903L20.0395 15.7684C20.0395 16.3428 19.6064 16.7959 19.0272 16.7959C18.4479 16.7973 18.0122 16.3455 18.0122 15.7711L18.0109 14.745C15.4438 15.0022 14.0234 16.5107 14.0273 19.4013L14.0286 19.8157ZM28.3199 25.8727V25.8874C28.333 26.5004 28.8333 26.9655 29.4402 26.9522C30.0326 26.9375 30.5052 26.4298 30.492 25.8167C30.4644 25.2304 29.9891 24.7519 29.398 24.7533C28.7925 24.7666 28.3186 25.2597 28.3199 25.8727ZM29.4073 31.8564C28.8017 31.8431 28.3133 31.338 28.312 30.725C28.2988 30.1119 28.7846 29.6042 29.3901 29.5895H29.4033C30.022 29.5895 30.5236 30.0946 30.5236 30.721C30.5249 31.3473 30.0247 31.8551 29.4073 31.8564ZM22.8962 25.894C22.9225 26.5071 23.4241 26.9855 24.0296 26.9588C24.622 26.9308 25.0946 26.4244 25.0683 25.8114C25.0538 25.2117 24.5667 24.7453 23.9743 24.7466C23.3688 24.7733 22.8948 25.281 22.8962 25.894ZM24.0349 31.7964C23.4293 31.8231 22.9291 31.3446 22.9014 30.7316C22.9014 30.1186 23.374 29.6122 23.9796 29.5842C24.572 29.5829 25.0604 30.0493 25.0735 30.6477C25.1012 31.262 24.6273 31.7684 24.0349 31.7964ZM17.4724 25.9407C17.4988 26.5537 18.0003 27.0335 18.6059 27.0055C19.1983 26.9788 19.6709 26.4711 19.6432 25.8581C19.6301 25.2584 19.143 24.7919 18.5493 24.7933C17.9437 24.8199 17.4711 25.3277 17.4724 25.9407ZM18.6112 31.8031C18.0056 31.8311 17.5054 31.3513 17.4777 30.7383C17.4764 30.1253 17.9503 29.6175 18.5559 29.5909C19.1483 29.5895 19.6367 30.056 19.6498 30.6557C19.6775 31.2687 19.2049 31.7764 18.6112 31.8031Z" fill="#5B25D9"/>
</svg>
