<svg width="48" height="48" viewBox="0 0 48 48" fill="none" xmlns="http://www.w3.org/2000/svg">
<rect x="0.5" y="0.5" width="47" height="47" rx="11.5" stroke="#7C51E1"/>
<path fill-rule="evenodd" clip-rule="evenodd" d="M24.0003 37.3337C16.6403 37.3337 10.667 31.3737 10.667 24.0003C10.667 16.6403 16.6403 10.667 24.0003 10.667C31.3737 10.667 37.3337 16.6403 37.3337 24.0003C37.3337 31.3737 31.3737 37.3337 24.0003 37.3337ZM28.2537 28.947C28.4137 29.0403 28.587 29.0937 28.7737 29.0937C29.107 29.0937 29.4403 28.9203 29.627 28.6003C29.907 28.1337 29.7603 27.5203 29.2803 27.227L24.5337 24.4003V18.2403C24.5337 17.6803 24.0803 17.2403 23.5337 17.2403C22.987 17.2403 22.5337 17.6803 22.5337 18.2403V24.9737C22.5337 25.3203 22.7203 25.6403 23.027 25.827L28.2537 28.947Z" fill="#5B25D9"/>
</svg>
