<svg width="48" height="48" viewBox="0 0 48 48" fill="none" xmlns="http://www.w3.org/2000/svg">
<rect x="0.5" y="0.5" width="47" height="47" rx="11.5" stroke="#7C51E1"/>
<path fill-rule="evenodd" clip-rule="evenodd" d="M20.5019 34.7039L32.217 19.5539C32.8537 18.7369 33.0801 17.7924 32.8679 16.8307C32.684 15.9563 32.1463 15.125 31.3398 14.4944L29.3731 12.9321C27.6611 11.5705 25.5388 11.7138 24.322 13.2761L23.0062 14.9831C22.8364 15.1967 22.8789 15.512 23.0911 15.684C23.0911 15.684 26.416 18.3499 26.4868 18.4073C26.7132 18.6223 26.883 18.9089 26.9254 19.2529C26.9961 19.9266 26.5292 20.5572 25.8359 20.6432C25.5105 20.6862 25.1993 20.5859 24.9729 20.3996L21.4781 17.619C21.3083 17.4914 21.0537 17.5186 20.9122 17.6906L12.6069 28.4404C12.0692 29.114 11.8853 29.9883 12.0692 30.834L13.1304 35.4349C13.187 35.6785 13.3992 35.8505 13.6539 35.8505L18.323 35.7932C19.1719 35.7788 19.9642 35.3919 20.5019 34.7039ZM27.0396 33.271H34.653C35.3958 33.271 36 33.883 36 34.6355C36 35.3894 35.3958 36 34.653 36H27.0396C26.2968 36 25.6926 35.3894 25.6926 34.6355C25.6926 33.883 26.2968 33.271 27.0396 33.271Z" fill="#5B25D9"/>
</svg>
