<svg width="48" height="48" viewBox="0 0 48 48" fill="none" xmlns="http://www.w3.org/2000/svg">
<rect x="0.5" y="0.5" width="47" height="47" rx="11.5" stroke="#7C51E1"/>
<path fill-rule="evenodd" clip-rule="evenodd" d="M18.4133 10.667H29.588C33.7067 10.667 36 13.0403 36 17.107V30.8803C36 35.0137 33.7067 37.3337 29.588 37.3337H18.4133C14.36 37.3337 12 35.0137 12 30.8803V17.107C12 13.0403 14.36 10.667 18.4133 10.667ZM18.7733 16.8803V16.867H22.7587C23.3333 16.867 23.8 17.3337 23.8 17.9057C23.8 18.4937 23.3333 18.9603 22.7587 18.9603H18.7733C18.1987 18.9603 17.7333 18.4937 17.7333 17.9203C17.7333 17.347 18.1987 16.8803 18.7733 16.8803ZM18.7733 24.987H29.2267C29.8 24.987 30.2667 24.5203 30.2667 23.947C30.2667 23.3737 29.8 22.9057 29.2267 22.9057H18.7733C18.1987 22.9057 17.7333 23.3737 17.7333 23.947C17.7333 24.5203 18.1987 24.987 18.7733 24.987ZM18.7733 31.0803H29.2267C29.7587 31.027 30.16 30.5723 30.16 30.0403C30.16 29.4937 29.7587 29.0403 29.2267 28.987H18.7733C18.3733 28.947 17.9867 29.1337 17.7733 29.4803C17.56 29.8137 17.56 30.2537 17.7733 30.6003C17.9867 30.9337 18.3733 31.1337 18.7733 31.0803Z" fill="#5B25D9"/>
</svg>
