<svg width="32" height="32" viewBox="0 0 32 32" fill="none" xmlns="http://www.w3.org/2000/svg">
<path opacity="0.4" d="M21.588 2.6665H10.4133C6.36 2.6665 4 5.03984 4 9.1065V22.8798C4 27.0132 6.36 29.3332 10.4133 29.3332H21.588C25.7067 29.3332 28 27.0132 28 22.8798V9.1065C28 5.03984 25.7067 2.6665 21.588 2.6665Z" fill="#5B25D9"/>
<path fill-rule="evenodd" clip-rule="evenodd" d="M10.7731 8.86654V8.87987C10.1984 8.87987 9.73307 9.34654 9.73307 9.91987C9.73307 10.4932 10.1984 10.9599 10.7731 10.9599H14.7584C15.3331 10.9599 15.7997 10.4932 15.7997 9.9052C15.7997 9.3332 15.3331 8.86654 14.7584 8.86654H10.7731ZM21.2264 16.9863H10.7731C10.1984 16.9863 9.73307 16.5196 9.73307 15.9463C9.73307 15.3729 10.1984 14.9049 10.7731 14.9049H21.2264C21.7997 14.9049 22.2664 15.3729 22.2664 15.9463C22.2664 16.5196 21.7997 16.9863 21.2264 16.9863ZM21.2266 23.0798H10.7733C10.3733 23.1331 9.98661 22.9331 9.77328 22.5998C9.55995 22.2531 9.55995 21.8131 9.77328 21.4798C9.98661 21.1331 10.3733 20.9465 10.7733 20.9865H21.2266C21.7586 21.0398 22.1599 21.4931 22.1599 22.0398C22.1599 22.5718 21.7586 23.0265 21.2266 23.0798Z" fill="#5B25D9"/>
</svg>
